<svg id="Capa_1" data-name="Capa 1" xmlns="http://www.w3.org/2000/svg" viewBox="0 0 250.79 268.3"><defs><style>.cls-1{fill:#7cb7ba;}</style></defs><title>logo</title><path class="cls-1" d="M75,20.64V238a3,3,0,0,1-5.88.69L34.54,92.74a3,3,0,0,0-2.9-2.29H5.19a3,3,0,0,1-2.1-5.09L69.91,18.54A3,3,0,0,1,75,20.64Z" transform="translate(-2.21 -2.98)"/><path class="cls-1" d="M171,6.57V267.7a3.58,3.58,0,0,1-7.06.83L122.39,93.2a3.59,3.59,0,0,0-3.49-2.75H87.12a3.58,3.58,0,0,1-2.53-6.11L164.89,4A3.58,3.58,0,0,1,171,6.57Z" transform="translate(-2.21 -2.98)"/><path class="cls-1" d="M253,20.64V238a3,3,0,0,1-5.88.69L212.54,92.74a3,3,0,0,0-2.9-2.29H183.19a3,3,0,0,1-2.1-5.09l66.82-66.82A3,3,0,0,1,253,20.64Z" transform="translate(-2.21 -2.98)"/></svg>