<svg id="Capa_1" data-name="Capa 1" xmlns="http://www.w3.org/2000/svg" xmlns:xlink="http://www.w3.org/1999/xlink" viewBox="0 0 152.74 223.16"><defs><style>.cls-1{fill:url(#Degradado_sin_nombre_69);}.cls-2{fill:url(#Degradado_sin_nombre_69-2);}</style><linearGradient id="Degradado_sin_nombre_69" x1="197.54" y1="199.01" x2="7.54" y2="28.01" gradientUnits="userSpaceOnUse"><stop offset="0.05" stop-color="#72ffe9"/><stop offset="0.45" stop-color="#d4ffe9"/><stop offset="0.75" stop-color="#5ddbd0"/><stop offset="1" stop-color="#00bebd"/></linearGradient><linearGradient id="Degradado_sin_nombre_69-2" x1="201.26" y1="190.43" x2="11.26" y2="19.43" xlink:href="#Degradado_sin_nombre_69"/></defs><title>arrowU</title><path class="cls-1" d="M119.76,17.69V235a3,3,0,0,1-5.88.69L79.3,89.79a3,3,0,0,0-2.9-2.29H50a3,3,0,0,1-2.95-3,3.05,3.05,0,0,1,.85-2l66.8-66.92a3,3,0,0,1,5.09,2.11Z" transform="translate(-47.02 -14.73)"/><path class="cls-2" d="M127.87,15.64a3,3,0,0,1,4.24-.06l66.8,66.92a3.05,3.05,0,0,1,.85,2,3,3,0,0,1-2.95,3H170.38a3,3,0,0,0-2.9,2.29L132.9,235.72A3,3,0,0,1,127,235V17.69A3,3,0,0,1,127.87,15.64Z" transform="translate(-47.02 -14.73)"/></svg>