<svg id="Capa_1" data-name="Capa 1" xmlns="http://www.w3.org/2000/svg" xmlns:xlink="http://www.w3.org/1999/xlink" viewBox="0 0 250.76 268.32"><defs><style>.cls-1{fill:url(#Degradado_sin_nombre_34);}.cls-2{fill:url(#Degradado_sin_nombre_34-2);}.cls-3{fill:url(#Degradado_sin_nombre_34-3);}</style><linearGradient id="Degradado_sin_nombre_34" x1="28.4" y1="8.31" x2="105.4" y2="419.31" gradientUnits="userSpaceOnUse"><stop offset="0" stop-color="#cab9f8"/><stop offset="0.29" stop-color="#818cf8"/><stop offset="0.59" stop-color="#b367f8"/><stop offset="0.89" stop-color="#818cf8"/></linearGradient><linearGradient id="Degradado_sin_nombre_34-2" x1="115.37" y1="-7.99" x2="192.37" y2="403.01" xlink:href="#Degradado_sin_nombre_34"/><linearGradient id="Degradado_sin_nombre_34-3" x1="200.36" y1="-23.91" x2="277.36" y2="387.09" xlink:href="#Degradado_sin_nombre_34"/></defs><title>logo2</title><path class="cls-1" d="M72.79,17.66V235a3,3,0,0,1-5.88.69L32.33,89.76a3,3,0,0,0-2.9-2.29H3a3,3,0,0,1-2.95-3,3.06,3.06,0,0,1,.85-2L67.7,15.55a3,3,0,0,1,4.24.06A3,3,0,0,1,72.79,17.66Z" transform="translate(-0.03 0.03)"/><path class="cls-2" d="M168.79,3.59V264.72a3.58,3.58,0,0,1-7.06.83L120.18,90.22a3.59,3.59,0,0,0-3.49-2.75H84.91a3.58,3.58,0,0,1-2.53-6.11L162.68,1a3.58,3.58,0,0,1,6.11,2.57Z" transform="translate(-0.03 0.03)"/><path class="cls-3" d="M250.79,17.66V235a3,3,0,0,1-5.88.69L210.33,89.76a3,3,0,0,0-2.9-2.29H181a3,3,0,0,1-2.95-3,3.06,3.06,0,0,1,.85-2L245.7,15.55a3,3,0,0,1,4.24.06A3,3,0,0,1,250.79,17.66Z" transform="translate(-0.03 0.03)"/></svg>