<svg id="Capa_1" data-name="Capa 1" xmlns="http://www.w3.org/2000/svg" xmlns:xlink="http://www.w3.org/1999/xlink" viewBox="0 0 250.74 268.34"><defs><style>.cls-1{fill:url(#Degradado_sin_nombre_69);}.cls-2{fill:url(#Degradado_sin_nombre_69-2);}.cls-3{fill:url(#Degradado_sin_nombre_69-3);}</style><linearGradient id="Degradado_sin_nombre_69" x1="-20.41" y1="62.98" x2="278.59" y2="272.98" gradientUnits="userSpaceOnUse"><stop offset="0.05" stop-color="#72ffe9"/><stop offset="0.45" stop-color="#d4ffe9"/><stop offset="0.75" stop-color="#5ddbd0"/><stop offset="1" stop-color="#00bebd"/></linearGradient><linearGradient id="Degradado_sin_nombre_69-2" x1="7.43" y1="23.35" x2="306.43" y2="233.35" xlink:href="#Degradado_sin_nombre_69"/><linearGradient id="Degradado_sin_nombre_69-3" x1="38.39" y1="-20.74" x2="337.39" y2="189.26" xlink:href="#Degradado_sin_nombre_69"/></defs><title>logo</title><path class="cls-1" d="M72.76,17.69V235a3,3,0,0,1-5.88.69L32.3,89.79a3,3,0,0,0-2.9-2.29H3A3,3,0,0,1,0,84.5a3.05,3.05,0,0,1,.85-2l66.8-66.92a3,3,0,0,1,5.09,2.11Z" transform="translate(-0.02 0.02)"/><path class="cls-2" d="M168.76,3.62V264.75a3.58,3.58,0,0,1-7.06.83L120.15,90.25a3.59,3.59,0,0,0-3.49-2.75H84.88a3.58,3.58,0,0,1-2.53-6.11L162.65,1a3.58,3.58,0,0,1,6.11,2.57Z" transform="translate(-0.02 0.02)"/><path class="cls-3" d="M250.76,17.69V235a3,3,0,0,1-5.88.69L210.3,89.79a3,3,0,0,0-2.9-2.29H181a3,3,0,0,1-2.95-3,3.05,3.05,0,0,1,.85-2l66.8-66.92a3,3,0,0,1,5.09,2.11Z" transform="translate(-0.02 0.02)"/></svg>